<?xml version="1.0" encoding="utf-8"?>
<!-- Generator: Adobe Illustrator 22.1.0, SVG Export Plug-In . SVG Version: 6.00 Build 0)  -->
<svg version="1.1" id="Layer_1" xmlns="http://www.w3.org/2000/svg" xmlns:xlink="http://www.w3.org/1999/xlink" x="0px" y="0px"
	 viewBox="0 0 487.4 113.8" style="enable-background:new 0 0 487.4 113.8;" xml:space="preserve">
<style type="text/css">
	.st0{fill:rgba(255,255,255,.5);}
</style>
<g>
	<g>
		<path class="st0" d="M425.6,28.3c-17.6,0-35.3,0-52.9,0c-2.6,0-3.8,1.3-3.8,3.8c0,18.1,0,36.2,0,54.4c0,1.5-0.3,1.8-1.8,1.8
			c-2.9,0-5.8,0-8.6,0c-1.8,0-2-0.2-2-2.1c0-18,0-36.1,0-54.1c0-2.6-1.2-3.8-3.8-3.8c-17.7,0-35.4,0-53.2,0c-0.2,0-0.5,0-0.7,0
			c-1.9,0.1-3.4,2-3,3.9c1,5.7,2.1,11.3,3.1,17c1.1,6.2,2.1,12.4,3.2,18.5c1.2,6.7,2.4,13.4,3.5,20.2c0.5,2.9,1.4,3.9,4.5,3.9
			c10.6-0.1,21.2,0,31.8,0c1.5,0,1.8,0.3,1.9,1.7c0,4.6,0.1,9.1,0,13.7c0,2.2-1.4,3.4-3.6,3.4c-9.8-0.1-36.5,0-39.9,0
			c-1.8,0-3-1-3.2-2.7c-0.2-1.1-8.9-48.8-9.9-54.4c-0.4-2-1.3-2.9-3.4-2.9c-7.2,0-14.4,0-21.6,0c-1.6,0-1.7,0-1.7-1.7
			c0-5.3,0-10.6,0-16c0-2.8-1.4-4.5-4.4-4.5c-28.1,0.1-104.3,0-106.5,0c-0.9,0-1.6,0.3-2.1,1.2c-0.6,1.1-7.8,14.6-10.8,20.3
			c-0.4,0.7-0.4,1.4-0.1,2.2c0.6,1.3,1.7,1.9,3.1,1.9c10.1,0,31.1,0,31.6,0c1.9,0.2,3.3,2,2.8,3.5c-2.3,6.5-4.5,12.9-6.8,19.4
			c-1.2,3.3-2.1,6.7-3.7,9.9c-0.6,1.3-1.5,1.9-3,1.8c-19.6,0-39.3,0-58.9,0c-1.7,0-2.8-0.7-3.3-2.2c-0.7-2-1.4-4-2.1-6
			c-2.6-8-5.3-16-7.9-24.1c-0.6-1.9-0.3-2.4,1.7-2.4c10.1,0,20.2,0,30.4,0c2,0,3.4-1,4.2-2.7c3-6.3,5.9-12.6,8.9-18.8
			c0.4-0.7,0.3-1.4,0-2c-0.7-1.3-1.8-1.9-3.3-1.9c-17.8,0-54.2,0-54.6,0.1c-1.8,0.5-2.7,1.8-2.7,4.1c0,5.4,0,10.8,0,16.2
			c0,1.5-0.2,1.6-1.7,1.6c-2.9,0-5.8,0-8.8,0c-1.7,0-1.8-0.1-1.8-1.9c0-12.7,0-25.4,0-38c0-2.4,0-4.7,0-7.1c0-2.2-1.3-3.4-3.4-3.4
			c-2.2,0-4.3,0-6.5,0c-0.9,0-1.7,0.4-2.3,1.1C47.9,2,47.8,3,47.8,4.1c0,14.7,0,29.4,0,44.2c0,2.2,0,2.2-2.2,2.2
			c-10.5,0-21,0-31.6,0c-2.7,0-3.8,1-4.2,3.6c-0.4,2.5-0.8,5-1.3,7.5C7.7,66.3,6.9,71.1,6,75.9c-1.1,6.2-2.1,12.4-3.2,18.5
			C1.9,99.6,0.9,104.8,0,110c-0.4,2.1,1.1,3.7,3.2,3.7c18,0,36.1,0,54.1,0c0.9,0,1.6-0.3,2.2-0.9c0.9-0.9,1.1-1.9,1.1-3.1
			c0-18.1,0-36.2,0-54.2c0-1.4,0.2-1.8,1.5-1.8c3.1,0,6.2,0,9.4,0c1,0,1.5,0.4,1.4,1.5c0,1.8,0,3.7,0,5.5c0.1,9.1,0.1,18.1,0.2,27.2
			c0,2.6,1.2,3.7,3.7,3.7c38.8,0,77.5,0,116.3,0c0.3,0,0.6,0,1,0c1.7-0.2,3.2-2.1,2.8-3.5c-1.3-4.7-2.7-9.5-4.1-14.2
			c-1.9-6.7-4-13.3-5.7-20.1c-0.6-2.4-1.8-3.5-4.4-3.5c-6.1,0-12.2,0-18.2,0c-4.3,0-4.3,0-5.7-4.1c-1.1-3.5-2.2-7.1-3.4-10.6
			c-0.8-2.3,1-4.2,3-4.1c1.1,0.1,89.9,0,90.2,0c1.9,0.1,3.2,1.8,2.7,3.7c-1.2,4.5-2.5,9.1-3.7,13.6c-0.3,1.2-0.9,1.4-2,1.4
			c-14,0-28.1,0-42.1,0c-1.1,0-2,0.2-2.8,0.9c-1,0.8-1.2,1.9-0.8,3c0.8,3.1,1.8,6.1,2.6,9.2c2.4,8.5,4.9,17,7.3,25.6
			c0.5,1.6,1.6,2.6,3.3,2.6c14.7,0,29.3,0,44,0c1.7,0,2.8-0.9,3.2-2.6c0.4-1.4,0.2-2.8,0.2-4.2c0-9.8,0-19.6,0-29.4
			c0-1.6,0.2-1.8,1.8-1.8c3,0,5.9,0,8.9,0c2,0,3,1,3,3c0,9.2,0,45,0,53.8c0,1.9,1.4,3.2,3.3,3.2c9.7,0,63.7,0,75.5,0
			c2.2,0,3.5-1.2,3.5-3.5c0-5.5,0-11,0-16.4c0-1.9,0.3-2.2,2.1-2.2c6.5,0,13,0,19.6,0c2.4,0,3.5-1.2,3.5-3.5c0-17.5,0-35,0-52.4
			c0-0.3,0-0.6,0-1c0.1-1.7,1.4-3.1,3.1-3.1c3,0,6.1,0,9.1,0c1.4,0,2.7,1.1,2.9,2.4c0.4,3.1,0.8,6.1,1.2,9.2
			c0.5,3.9,0.9,7.9,1.5,11.8c0.6,4.5,1.3,9,1.9,13.6s1.1,9.1,1.7,13.7c0.7,5.1,1.4,10.2,2.1,15.3c0.6,4.5,1.1,9,1.7,13.5
			c0.2,1.4,1.5,2.6,3,2.6c2.2,0,4.5,0,6.7,0c1.4,0,2.7-1,2.9-2.4c0.2-1.3,0.4-2.7,0.5-4c0.4-3.4,0.8-6.9,1.3-10.3
			c0.4-3.5,0.9-7,1.4-10.5c0.4-2.8,0.7-5.6,1-8.4c0.5-3.6,0.9-7.2,1.4-10.7c0.4-3.4,0.7-6.9,1.3-10.3c0.7-4.6,1.2-9.3,1.9-13.9
			c0.5-3.5,0.8-6.9,1.3-10.4C429.9,29.8,428.7,28.3,425.6,28.3z M343.7,86.1c0,1.9-0.3,2.2-2.2,2.2c-6.5,0-13,0-19.5,0
			c-2.4,0-3.7-1.5-3.2-3.8c1.8-9.2,3.7-18.4,5.5-27.6c1.4-7.2,2.8-14.5,4.2-21.7c0.2-0.8,0.2-1.7,0.9-2.4c0.6-0.7,1.3-1.1,2.2-1.1
			c2.8,0,5.6,0,8.4,0c2.6,0,3.8,1.2,3.8,3.8c0,5.8,0,11.5,0,17.3c0,2.7,0,5.4,0,8.2l0,0C343.7,69.3,343.7,77.7,343.7,86.1z
			 M47.8,81.4c0,8.6,0,17.2,0,25.8c0,2.2-1,3.3-3.3,3.3c-2.8,0-5.6,0-8.4,0c-1.9,0-2.9-0.7-3.3-2.6c-1.4-6.9-2.7-13.8-4-20.7
			c-1-5.2-2.1-10.3-3.1-15.5c-1-4.8-1.9-9.6-2.8-14.4c-0.3-1.8,1-3.5,3-3.5c6.9-0.1,13.8,0,20.6,0c1.1,0,1.3,0.7,1.3,1.7
			C47.8,64.1,47.8,72.7,47.8,81.4L47.8,81.4z M85.9,49c-1.1-4.4-2.4-8.7-3.6-13.1c-0.6-2,1-4.2,3.1-4.2c3.7,0,7.4,0,11.1,0
			s7.4,0,11,0c2.2,0,3.3,1.1,3.3,3.3c0,4.1,0,8.2,0,12.2c0,2.1-1.1,3.2-3.1,3.2c-6.7,0-13.4,0-20.1,0C86.5,50.4,86.1,50,85.9,49z
			 M245.3,55.5c-1.8,6.1-3.6,12.2-5.4,18.3c-0.1,0.3-0.1,0.5-0.2,0.8c0.2-0.3,0.4-0.5,0.6-0.6c-0.2,0.1-0.4,0.3-0.6,0.6
			c-1.3,3.5-2.2,7.1-3.3,10.7c-0.5,1.6-2,2.9-3.7,3c-2.5,0-5,0-7.4,0c-1.7,0-2.9-1.3-2.9-3c0-6.9,0-13.8,0-20.7c0-0.5,0-1,0-1.4l0,0
			c0-2,0.1-4.1,0-6.1c-0.1-1.7,1.5-3.2,3.1-3.2c6.2,0,12.3,0,18.5,0C245.2,53.8,245.6,54.4,245.3,55.5z"/>
		<path class="st0" d="M274.1,39.2c0,1.5,0.5,2,2,2.1c2.3,0,4.6,0,6.9,0c1.7,0,2.1-0.7,1.8-2.3c-0.6-3-1.2-6-1.8-9.1
			c-0.2-1-0.7-1.5-1.8-1.5c-1.8,0-3.6,0-5.4,0c-1.2,0-1.7,0.5-1.7,1.7c0,1.6,0,3.1,0,4.7C274.1,36.2,274.1,37.7,274.1,39.2z"/>
	</g>
	<g>
		<path class="st0" d="M442.4,113.2h-12.3l2.7-22.1h6.6l-1.9,16.1h5.7L442.4,113.2z"/>
		<path class="st0" d="M462.9,113.2h-12.3l2.7-22.1h6.6l-1.9,16.1h5.7L462.9,113.2z"/>
		<path class="st0" d="M483.3,98c-0.3-0.3-0.6-0.6-0.9-0.8c-0.3-0.2-0.8-0.4-1.4-0.4s-1.2,0.2-1.6,0.7c-0.5,0.4-0.9,1-1.2,1.7
			c-0.3,0.7-0.5,1.5-0.7,2.3c-0.1,0.8-0.2,1.7-0.2,2.5c0.1,1,0.3,1.8,0.7,2.5c0.4,0.6,1,0.9,1.9,0.9c0.5,0,0.9-0.1,1.3-0.3
			c0.3-0.2,0.7-0.5,0.9-0.7l3.1,5c-0.7,0.7-1.5,1.2-2.5,1.7s-2.2,0.7-3.6,0.7c-1.3,0-2.5-0.2-3.5-0.6s-1.9-1-2.6-1.8
			s-1.3-1.7-1.7-2.8c-0.4-1.1-0.7-2.3-0.7-3.6c-0.1-1.9,0.1-3.8,0.5-5.5c0.4-1.8,1.1-3.3,2-4.6c0.9-1.3,2-2.4,3.3-3.2
			c1.3-0.8,2.8-1.2,4.4-1.2c0.9,0,1.7,0.1,2.4,0.2c0.7,0.1,1.3,0.3,1.8,0.6c0.5,0.2,1,0.5,1.4,0.8s0.7,0.6,1,1L483.3,98z"/>
	</g>
	<g>
		<path class="st0" d="M448.2,31.6h-2.3l-1.2,9.7h-3.8l1.2-9.7h-2.3l0.4-3.3h8.4L448.2,31.6z"/>
		<path class="st0" d="M464.3,41.3h-3.7l1.1-7.6h-0.1l-2.6,7.6h-2.4l-0.7-7.6h-0.1l-0.8,7.6h-3.4l1.6-12.9h4.5l0.7,7h0.1l2.3-7h5
			L464.3,41.3z"/>
	</g>
	<g>
		<path class="st0" d="M74.3,101.2h6.6v3.3h-3v1.2h2.7v3.1h-2.7v1.3h3.2v3.4h-6.8C74.3,113.5,74.3,101.2,74.3,101.2z"/>
		<path class="st0" d="M93.4,113.8c-0.4,0-0.8,0-1.2-0.1c-0.4-0.1-0.7-0.2-1-0.3c-0.3-0.1-0.6-0.3-0.9-0.4c-0.3-0.2-0.5-0.3-0.7-0.5
			l1.8-2.9c0.3,0.2,0.6,0.4,0.9,0.5s0.6,0.2,0.9,0.2c0.2,0,0.4,0,0.5-0.1s0.2-0.2,0.2-0.4c0-0.2-0.1-0.4-0.3-0.6
			c-0.2-0.1-0.5-0.3-0.9-0.5c-0.3-0.2-0.7-0.3-1-0.5s-0.6-0.4-0.8-0.7c-0.2-0.3-0.4-0.6-0.6-1c-0.1-0.4-0.2-0.8-0.2-1.4
			c0-0.8,0.1-1.4,0.4-1.9s0.6-1,1-1.3s0.9-0.6,1.4-0.7c0.5-0.2,1-0.2,1.5-0.2c0.7,0,1.4,0.1,2,0.3c0.6,0.2,1.1,0.5,1.5,0.9L96,105
			c-0.2-0.2-0.4-0.4-0.7-0.5c-0.3-0.1-0.5-0.2-0.8-0.2c-0.2,0-0.4,0-0.5,0.1c-0.2,0.1-0.2,0.3-0.2,0.5s0.1,0.3,0.2,0.5
			c0.2,0.1,0.5,0.3,0.9,0.5c0.3,0.1,0.5,0.3,0.9,0.5c0.3,0.2,0.6,0.4,0.9,0.7c0.3,0.3,0.5,0.7,0.7,1.1s0.3,0.9,0.3,1.5
			c0,0.7-0.1,1.4-0.4,1.9c-0.2,0.5-0.6,1-1,1.3s-0.9,0.6-1.4,0.7C94.5,113.7,94,113.8,93.4,113.8z"/>
		<path class="st0" d="M111.7,113.5H108v-9.1h-2.2v-3.2h8.1v3.2h-2.2C111.7,104.4,111.7,113.5,111.7,113.5z"/>
		<path class="st0" d="M121,113.6c-0.6,0-1-0.2-1.4-0.6c-0.3-0.4-0.5-0.9-0.5-1.4c0-0.3,0-0.5,0.1-0.8c0.1-0.2,0.2-0.5,0.4-0.6
			c0.2-0.2,0.4-0.3,0.6-0.4s0.5-0.2,0.8-0.2s0.5,0.1,0.8,0.2c0.2,0.1,0.4,0.3,0.6,0.4c0.2,0.2,0.3,0.4,0.4,0.6s0.1,0.5,0.1,0.8
			c0,0.6-0.2,1-0.5,1.4C122,113.4,121.6,113.6,121,113.6z"/>
		<path class="st0" d="M137.9,110.2l4-4c0.2-0.2,0.4-0.4,0.5-0.7c0.1-0.2,0.2-0.5,0.2-0.7s-0.1-0.4-0.2-0.5
			c-0.1-0.1-0.3-0.2-0.5-0.2s-0.4,0.1-0.6,0.4c-0.2,0.2-0.2,0.6-0.2,1l-3.5-0.3c0.1-0.7,0.2-1.4,0.5-1.9s0.6-1,1-1.3
			c0.4-0.4,0.8-0.6,1.4-0.8c0.5-0.2,1.1-0.3,1.7-0.3c0.6,0,1.2,0.1,1.7,0.3s0.9,0.4,1.3,0.8c0.4,0.3,0.7,0.8,0.9,1.2
			s0.3,1.1,0.3,1.7c0,0.4-0.1,0.8-0.2,1.1c-0.1,0.3-0.3,0.7-0.4,1s-0.4,0.6-0.6,0.8c-0.2,0.3-0.4,0.5-0.6,0.7l-1.9,1.8h3.6v3.3h-8.2
			v-3.4H137.9z"/>
		<path class="st0" d="M158.1,113.7c-0.9,0-1.7-0.2-2.3-0.6s-1-0.9-1.4-1.6c-0.3-0.6-0.6-1.3-0.7-2.1c-0.1-0.8-0.2-1.5-0.2-2.1
			c0-0.7,0.1-1.4,0.2-2.1c0.1-0.8,0.3-1.4,0.7-2.1c0.3-0.6,0.8-1.2,1.4-1.6c0.6-0.4,1.3-0.6,2.3-0.6c0.9,0,1.7,0.2,2.3,0.6
			s1,0.9,1.4,1.6c0.3,0.6,0.6,1.3,0.7,2.1c0.1,0.8,0.2,1.5,0.2,2.1c0,0.7-0.1,1.4-0.2,2.1c-0.1,0.8-0.3,1.4-0.7,2.1
			c-0.3,0.6-0.8,1.2-1.4,1.6C159.8,113.5,159,113.7,158.1,113.7z M158.1,104.2c-0.2,0-0.3,0.1-0.4,0.3c-0.1,0.2-0.2,0.4-0.2,0.7
			c-0.1,0.3-0.1,0.6-0.1,1s0,0.7,0,1.1s0,0.8,0,1.1c0,0.4,0.1,0.7,0.1,1c0.1,0.3,0.1,0.5,0.2,0.7s0.2,0.3,0.4,0.3s0.3-0.1,0.4-0.3
			c0.1-0.2,0.2-0.4,0.2-0.7c0.1-0.3,0.1-0.6,0.1-1s0-0.7,0-1.1s0-0.7,0-1.1s-0.1-0.7-0.1-1c-0.1-0.3-0.1-0.5-0.2-0.7
			C158.4,104.3,158.2,104.2,158.1,104.2z"/>
		<path class="st0" d="M170.8,101.2h6.6v3.3h-3v1.2h2.7v3.1h-2.7v1.3h3.2v3.4h-6.8V101.2z"/>
		<path class="st0" d="M186.8,101.2h3.8v8.8h3.2v3.5h-7V101.2z"/>
		<path class="st0" d="M203,101.2h6.6v3.3h-3v1.2h2.7v3.1h-2.7v1.3h3.2v3.4H203V101.2z"/>
		<path class="st0" d="M220,113.5l-2.9-12.3h4.3l1.1,7.8h0.1l1.1-7.8h4.1l-3,12.3H220z"/>
		<path class="st0" d="M235.2,101.2h6.6v3.3h-3v1.2h2.7v3.1h-2.7v1.3h3.2v3.4h-6.8V101.2z"/>
		<path class="st0" d="M253.4,107.7L253.4,107.7l0.1,5.8h-3.4v-12.3h4l1.9,6h0.1l-0.1-6h3.2v12.3h-3.9L253.4,107.7z"/>
	</g>
</g>
</svg>
